<mxfile host="app.diagrams.net" modified="2023-12-19T14:17:06.753Z" agent="Mozilla/5.0 (Macintosh; Intel Mac OS X 10_15_7) AppleWebKit/537.36 (KHTML, like Gecko) Chrome/120.0.0.0 Safari/537.36" etag="GNF08kqPXZyDQn_-DXsq" version="22.1.11" type="device">
  <diagram name="Page-1" id="j7h26F0nwXufT5P07zJU">
    <mxGraphModel dx="1010" dy="674" grid="1" gridSize="10" guides="1" tooltips="1" connect="1" arrows="1" fold="1" page="1" pageScale="1" pageWidth="850" pageHeight="1100" math="0" shadow="0">
      <root>
        <mxCell id="0" />
        <mxCell id="1" parent="0" />
        <mxCell id="JkpCKegnLrsDxvGGHOVk-1" value="HEADER SECTION" style="swimlane;whiteSpace=wrap;html=1;startSize=80;" parent="1" vertex="1">
          <mxGeometry x="70" y="80" width="690" height="510" as="geometry" />
        </mxCell>
        <mxCell id="JkpCKegnLrsDxvGGHOVk-2" value="FOOTER SECTION" style="rounded=0;whiteSpace=wrap;html=1;" parent="JkpCKegnLrsDxvGGHOVk-1" vertex="1">
          <mxGeometry y="450" width="690" height="60" as="geometry" />
        </mxCell>
        <mxCell id="JkpCKegnLrsDxvGGHOVk-3" value="" style="rounded=0;whiteSpace=wrap;html=1;strokeColor=#000000;" parent="JkpCKegnLrsDxvGGHOVk-1" vertex="1">
          <mxGeometry x="20" y="30" width="30" height="30" as="geometry" />
        </mxCell>
        <mxCell id="JkpCKegnLrsDxvGGHOVk-9" value="LOGO" style="ellipse;whiteSpace=wrap;html=1;aspect=fixed;" parent="JkpCKegnLrsDxvGGHOVk-1" vertex="1">
          <mxGeometry x="100" y="15" width="50" height="50" as="geometry" />
        </mxCell>
        <mxCell id="JkpCKegnLrsDxvGGHOVk-11" value="" style="rounded=0;whiteSpace=wrap;html=1;" parent="JkpCKegnLrsDxvGGHOVk-1" vertex="1">
          <mxGeometry y="80" width="90" height="370" as="geometry" />
        </mxCell>
        <mxCell id="JkpCKegnLrsDxvGGHOVk-13" value="SEARCH BAR" style="rounded=1;whiteSpace=wrap;html=1;" parent="JkpCKegnLrsDxvGGHOVk-1" vertex="1">
          <mxGeometry x="230" y="10" width="285" height="60" as="geometry" />
        </mxCell>
        <mxCell id="JkpCKegnLrsDxvGGHOVk-15" value="USER ICON" style="ellipse;whiteSpace=wrap;html=1;aspect=fixed;" parent="JkpCKegnLrsDxvGGHOVk-1" vertex="1">
          <mxGeometry x="610" y="20" width="50" height="50" as="geometry" />
        </mxCell>
        <mxCell id="JkpCKegnLrsDxvGGHOVk-16" style="edgeStyle=orthogonalEdgeStyle;rounded=0;orthogonalLoop=1;jettySize=auto;html=1;exitX=0.5;exitY=1;exitDx=0;exitDy=0;" parent="JkpCKegnLrsDxvGGHOVk-1" source="JkpCKegnLrsDxvGGHOVk-11" target="JkpCKegnLrsDxvGGHOVk-11" edge="1">
          <mxGeometry relative="1" as="geometry" />
        </mxCell>
        <mxCell id="JkpCKegnLrsDxvGGHOVk-17" style="edgeStyle=orthogonalEdgeStyle;rounded=0;orthogonalLoop=1;jettySize=auto;html=1;exitX=0.5;exitY=1;exitDx=0;exitDy=0;" parent="JkpCKegnLrsDxvGGHOVk-1" source="JkpCKegnLrsDxvGGHOVk-11" target="JkpCKegnLrsDxvGGHOVk-11" edge="1">
          <mxGeometry relative="1" as="geometry" />
        </mxCell>
        <mxCell id="JkpCKegnLrsDxvGGHOVk-19" value="BODY SECTION" style="rounded=0;whiteSpace=wrap;html=1;" parent="JkpCKegnLrsDxvGGHOVk-1" vertex="1">
          <mxGeometry x="100" y="95" width="580" height="340" as="geometry" />
        </mxCell>
        <mxCell id="JkpCKegnLrsDxvGGHOVk-20" value="BUTTONS" style="rounded=1;whiteSpace=wrap;html=1;" parent="JkpCKegnLrsDxvGGHOVk-1" vertex="1">
          <mxGeometry x="120" y="110" width="60" height="25" as="geometry" />
        </mxCell>
        <mxCell id="JkpCKegnLrsDxvGGHOVk-21" value="BUTTONS" style="rounded=1;whiteSpace=wrap;html=1;" parent="JkpCKegnLrsDxvGGHOVk-1" vertex="1">
          <mxGeometry x="220" y="110" width="60" height="25" as="geometry" />
        </mxCell>
        <mxCell id="JkpCKegnLrsDxvGGHOVk-22" value="BUTTONS" style="rounded=1;whiteSpace=wrap;html=1;" parent="JkpCKegnLrsDxvGGHOVk-1" vertex="1">
          <mxGeometry x="330" y="110" width="60" height="25" as="geometry" />
        </mxCell>
        <mxCell id="JkpCKegnLrsDxvGGHOVk-23" value="BUTTONS" style="rounded=1;whiteSpace=wrap;html=1;" parent="JkpCKegnLrsDxvGGHOVk-1" vertex="1">
          <mxGeometry x="420" y="110" width="60" height="25" as="geometry" />
        </mxCell>
        <mxCell id="JkpCKegnLrsDxvGGHOVk-24" value="BUTTONS" style="rounded=1;whiteSpace=wrap;html=1;" parent="JkpCKegnLrsDxvGGHOVk-1" vertex="1">
          <mxGeometry x="515" y="110" width="60" height="25" as="geometry" />
        </mxCell>
        <mxCell id="JkpCKegnLrsDxvGGHOVk-25" value="BUTTONS" style="rounded=1;whiteSpace=wrap;html=1;" parent="JkpCKegnLrsDxvGGHOVk-1" vertex="1">
          <mxGeometry x="605" y="110" width="60" height="25" as="geometry" />
        </mxCell>
        <mxCell id="JkpCKegnLrsDxvGGHOVk-27" style="edgeStyle=orthogonalEdgeStyle;rounded=0;orthogonalLoop=1;jettySize=auto;html=1;exitX=0.75;exitY=1;exitDx=0;exitDy=0;entryX=1;entryY=0.75;entryDx=0;entryDy=0;" parent="JkpCKegnLrsDxvGGHOVk-1" source="JkpCKegnLrsDxvGGHOVk-25" target="JkpCKegnLrsDxvGGHOVk-25" edge="1">
          <mxGeometry relative="1" as="geometry" />
        </mxCell>
        <mxCell id="JkpCKegnLrsDxvGGHOVk-28" value="VIDEOS" style="whiteSpace=wrap;html=1;aspect=fixed;" parent="JkpCKegnLrsDxvGGHOVk-1" vertex="1">
          <mxGeometry x="120" y="160" width="70" height="70" as="geometry" />
        </mxCell>
        <mxCell id="JkpCKegnLrsDxvGGHOVk-29" value="VIDEOS" style="whiteSpace=wrap;html=1;aspect=fixed;" parent="JkpCKegnLrsDxvGGHOVk-1" vertex="1">
          <mxGeometry x="120" y="250" width="70" height="70" as="geometry" />
        </mxCell>
        <mxCell id="JkpCKegnLrsDxvGGHOVk-30" value="VIDEOS" style="whiteSpace=wrap;html=1;aspect=fixed;" parent="JkpCKegnLrsDxvGGHOVk-1" vertex="1">
          <mxGeometry x="120" y="340" width="70" height="70" as="geometry" />
        </mxCell>
        <mxCell id="JkpCKegnLrsDxvGGHOVk-31" value="VIDEOS" style="whiteSpace=wrap;html=1;aspect=fixed;" parent="JkpCKegnLrsDxvGGHOVk-1" vertex="1">
          <mxGeometry x="220" y="160" width="70" height="70" as="geometry" />
        </mxCell>
        <mxCell id="JkpCKegnLrsDxvGGHOVk-32" value="VIDEOS" style="whiteSpace=wrap;html=1;aspect=fixed;" parent="JkpCKegnLrsDxvGGHOVk-1" vertex="1">
          <mxGeometry x="220" y="250" width="70" height="70" as="geometry" />
        </mxCell>
        <mxCell id="JkpCKegnLrsDxvGGHOVk-33" value="VIDEOS" style="whiteSpace=wrap;html=1;aspect=fixed;" parent="JkpCKegnLrsDxvGGHOVk-1" vertex="1">
          <mxGeometry x="220" y="340" width="70" height="70" as="geometry" />
        </mxCell>
        <mxCell id="JkpCKegnLrsDxvGGHOVk-34" value="VIDEOS" style="whiteSpace=wrap;html=1;aspect=fixed;" parent="JkpCKegnLrsDxvGGHOVk-1" vertex="1">
          <mxGeometry x="480" y="160" width="70" height="70" as="geometry" />
        </mxCell>
        <mxCell id="JkpCKegnLrsDxvGGHOVk-35" value="VIDEOS" style="whiteSpace=wrap;html=1;aspect=fixed;" parent="JkpCKegnLrsDxvGGHOVk-1" vertex="1">
          <mxGeometry x="480" y="250" width="70" height="70" as="geometry" />
        </mxCell>
        <mxCell id="JkpCKegnLrsDxvGGHOVk-36" value="VIDEOS" style="whiteSpace=wrap;html=1;aspect=fixed;" parent="JkpCKegnLrsDxvGGHOVk-1" vertex="1">
          <mxGeometry x="337.5" y="160" width="70" height="70" as="geometry" />
        </mxCell>
        <mxCell id="JkpCKegnLrsDxvGGHOVk-37" value="VIDEOS" style="whiteSpace=wrap;html=1;aspect=fixed;" parent="JkpCKegnLrsDxvGGHOVk-1" vertex="1">
          <mxGeometry x="337.5" y="340" width="70" height="70" as="geometry" />
        </mxCell>
        <mxCell id="JkpCKegnLrsDxvGGHOVk-38" value="VIDEOS" style="whiteSpace=wrap;html=1;aspect=fixed;" parent="JkpCKegnLrsDxvGGHOVk-1" vertex="1">
          <mxGeometry x="480" y="340" width="70" height="70" as="geometry" />
        </mxCell>
        <mxCell id="JkpCKegnLrsDxvGGHOVk-39" value="VIDEOS" style="whiteSpace=wrap;html=1;aspect=fixed;" parent="JkpCKegnLrsDxvGGHOVk-1" vertex="1">
          <mxGeometry x="590" y="160" width="70" height="70" as="geometry" />
        </mxCell>
        <mxCell id="JkpCKegnLrsDxvGGHOVk-40" value="VIDEOS" style="whiteSpace=wrap;html=1;aspect=fixed;" parent="JkpCKegnLrsDxvGGHOVk-1" vertex="1">
          <mxGeometry x="590" y="250" width="70" height="70" as="geometry" />
        </mxCell>
        <mxCell id="JkpCKegnLrsDxvGGHOVk-41" value="VIDEOS" style="whiteSpace=wrap;html=1;aspect=fixed;" parent="JkpCKegnLrsDxvGGHOVk-1" vertex="1">
          <mxGeometry x="590" y="340" width="70" height="70" as="geometry" />
        </mxCell>
        <mxCell id="JkpCKegnLrsDxvGGHOVk-43" value="" style="endArrow=none;html=1;rounded=0;" parent="JkpCKegnLrsDxvGGHOVk-1" edge="1">
          <mxGeometry width="50" height="50" relative="1" as="geometry">
            <mxPoint x="30" y="39.5" as="sourcePoint" />
            <mxPoint x="40" y="39.5" as="targetPoint" />
          </mxGeometry>
        </mxCell>
        <mxCell id="JkpCKegnLrsDxvGGHOVk-49" value="" style="endArrow=none;html=1;rounded=0;" parent="JkpCKegnLrsDxvGGHOVk-1" edge="1">
          <mxGeometry width="50" height="50" relative="1" as="geometry">
            <mxPoint x="30" y="44.93000000000001" as="sourcePoint" />
            <mxPoint x="40" y="44.93000000000001" as="targetPoint" />
          </mxGeometry>
        </mxCell>
        <mxCell id="JkpCKegnLrsDxvGGHOVk-50" value="" style="endArrow=none;html=1;rounded=0;" parent="JkpCKegnLrsDxvGGHOVk-1" edge="1">
          <mxGeometry width="50" height="50" relative="1" as="geometry">
            <mxPoint x="30" y="50" as="sourcePoint" />
            <mxPoint x="40" y="50" as="targetPoint" />
          </mxGeometry>
        </mxCell>
        <mxCell id="JkpCKegnLrsDxvGGHOVk-52" value="" style="rounded=0;whiteSpace=wrap;html=1;" parent="JkpCKegnLrsDxvGGHOVk-1" vertex="1">
          <mxGeometry y="100" width="90" height="20" as="geometry" />
        </mxCell>
        <mxCell id="JkpCKegnLrsDxvGGHOVk-53" value="" style="rounded=0;whiteSpace=wrap;html=1;" parent="JkpCKegnLrsDxvGGHOVk-1" vertex="1">
          <mxGeometry y="135" width="90" height="20" as="geometry" />
        </mxCell>
        <mxCell id="JkpCKegnLrsDxvGGHOVk-54" value="" style="rounded=0;whiteSpace=wrap;html=1;" parent="JkpCKegnLrsDxvGGHOVk-1" vertex="1">
          <mxGeometry y="170" width="90" height="20" as="geometry" />
        </mxCell>
        <mxCell id="JkpCKegnLrsDxvGGHOVk-55" value="" style="rounded=0;whiteSpace=wrap;html=1;" parent="JkpCKegnLrsDxvGGHOVk-1" vertex="1">
          <mxGeometry y="210" width="90" height="20" as="geometry" />
        </mxCell>
        <mxCell id="JkpCKegnLrsDxvGGHOVk-56" value="" style="rounded=0;whiteSpace=wrap;html=1;" parent="JkpCKegnLrsDxvGGHOVk-1" vertex="1">
          <mxGeometry y="245" width="90" height="20" as="geometry" />
        </mxCell>
        <mxCell id="JkpCKegnLrsDxvGGHOVk-57" value="" style="rounded=0;whiteSpace=wrap;html=1;" parent="JkpCKegnLrsDxvGGHOVk-1" vertex="1">
          <mxGeometry y="275" width="90" height="20" as="geometry" />
        </mxCell>
        <mxCell id="JkpCKegnLrsDxvGGHOVk-58" value="" style="rounded=0;whiteSpace=wrap;html=1;" parent="JkpCKegnLrsDxvGGHOVk-1" vertex="1">
          <mxGeometry y="310" width="90" height="20" as="geometry" />
        </mxCell>
        <mxCell id="JkpCKegnLrsDxvGGHOVk-59" value="" style="rounded=0;whiteSpace=wrap;html=1;" parent="JkpCKegnLrsDxvGGHOVk-1" vertex="1">
          <mxGeometry y="340" width="90" height="20" as="geometry" />
        </mxCell>
        <mxCell id="JkpCKegnLrsDxvGGHOVk-103" value="HEADER SECTION" style="swimlane;whiteSpace=wrap;html=1;startSize=80;" parent="1" vertex="1">
          <mxGeometry x="60" y="620" width="740" height="510" as="geometry" />
        </mxCell>
        <mxCell id="JkpCKegnLrsDxvGGHOVk-104" value="FOOTER SECTION" style="rounded=0;whiteSpace=wrap;html=1;" parent="JkpCKegnLrsDxvGGHOVk-103" vertex="1">
          <mxGeometry y="470" width="740" height="40" as="geometry" />
        </mxCell>
        <mxCell id="JkpCKegnLrsDxvGGHOVk-105" value="" style="rounded=0;whiteSpace=wrap;html=1;strokeColor=#000000;" parent="JkpCKegnLrsDxvGGHOVk-103" vertex="1">
          <mxGeometry x="20" y="30" width="30" height="30" as="geometry" />
        </mxCell>
        <mxCell id="JkpCKegnLrsDxvGGHOVk-106" value="LOGO" style="ellipse;whiteSpace=wrap;html=1;aspect=fixed;" parent="JkpCKegnLrsDxvGGHOVk-103" vertex="1">
          <mxGeometry x="100" y="15" width="50" height="50" as="geometry" />
        </mxCell>
        <mxCell id="JkpCKegnLrsDxvGGHOVk-107" value="" style="rounded=0;whiteSpace=wrap;html=1;" parent="JkpCKegnLrsDxvGGHOVk-103" vertex="1">
          <mxGeometry y="80" width="90" height="370" as="geometry" />
        </mxCell>
        <mxCell id="JkpCKegnLrsDxvGGHOVk-108" value="SEARCH BAR" style="rounded=1;whiteSpace=wrap;html=1;" parent="JkpCKegnLrsDxvGGHOVk-103" vertex="1">
          <mxGeometry x="230" y="10" width="285" height="60" as="geometry" />
        </mxCell>
        <mxCell id="JkpCKegnLrsDxvGGHOVk-109" value="USER ICON" style="ellipse;whiteSpace=wrap;html=1;aspect=fixed;" parent="JkpCKegnLrsDxvGGHOVk-103" vertex="1">
          <mxGeometry x="610" y="20" width="50" height="50" as="geometry" />
        </mxCell>
        <mxCell id="JkpCKegnLrsDxvGGHOVk-110" style="edgeStyle=orthogonalEdgeStyle;rounded=0;orthogonalLoop=1;jettySize=auto;html=1;exitX=0.5;exitY=1;exitDx=0;exitDy=0;" parent="JkpCKegnLrsDxvGGHOVk-103" source="JkpCKegnLrsDxvGGHOVk-107" target="JkpCKegnLrsDxvGGHOVk-107" edge="1">
          <mxGeometry relative="1" as="geometry" />
        </mxCell>
        <mxCell id="JkpCKegnLrsDxvGGHOVk-111" style="edgeStyle=orthogonalEdgeStyle;rounded=0;orthogonalLoop=1;jettySize=auto;html=1;exitX=0.5;exitY=1;exitDx=0;exitDy=0;" parent="JkpCKegnLrsDxvGGHOVk-103" source="JkpCKegnLrsDxvGGHOVk-107" target="JkpCKegnLrsDxvGGHOVk-107" edge="1">
          <mxGeometry relative="1" as="geometry" />
        </mxCell>
        <mxCell id="JkpCKegnLrsDxvGGHOVk-134" value="" style="endArrow=none;html=1;rounded=0;" parent="JkpCKegnLrsDxvGGHOVk-103" edge="1">
          <mxGeometry width="50" height="50" relative="1" as="geometry">
            <mxPoint x="30" y="39.5" as="sourcePoint" />
            <mxPoint x="40" y="39.5" as="targetPoint" />
          </mxGeometry>
        </mxCell>
        <mxCell id="JkpCKegnLrsDxvGGHOVk-135" value="" style="endArrow=none;html=1;rounded=0;" parent="JkpCKegnLrsDxvGGHOVk-103" edge="1">
          <mxGeometry width="50" height="50" relative="1" as="geometry">
            <mxPoint x="30" y="44.93000000000001" as="sourcePoint" />
            <mxPoint x="40" y="44.93000000000001" as="targetPoint" />
          </mxGeometry>
        </mxCell>
        <mxCell id="JkpCKegnLrsDxvGGHOVk-136" value="" style="endArrow=none;html=1;rounded=0;" parent="JkpCKegnLrsDxvGGHOVk-103" edge="1">
          <mxGeometry width="50" height="50" relative="1" as="geometry">
            <mxPoint x="30" y="50" as="sourcePoint" />
            <mxPoint x="40" y="50" as="targetPoint" />
          </mxGeometry>
        </mxCell>
        <mxCell id="JkpCKegnLrsDxvGGHOVk-137" value="" style="rounded=0;whiteSpace=wrap;html=1;" parent="JkpCKegnLrsDxvGGHOVk-103" vertex="1">
          <mxGeometry y="100" width="90" height="20" as="geometry" />
        </mxCell>
        <mxCell id="JkpCKegnLrsDxvGGHOVk-138" value="" style="rounded=0;whiteSpace=wrap;html=1;" parent="JkpCKegnLrsDxvGGHOVk-103" vertex="1">
          <mxGeometry y="135" width="90" height="20" as="geometry" />
        </mxCell>
        <mxCell id="JkpCKegnLrsDxvGGHOVk-139" value="" style="rounded=0;whiteSpace=wrap;html=1;" parent="JkpCKegnLrsDxvGGHOVk-103" vertex="1">
          <mxGeometry y="170" width="90" height="20" as="geometry" />
        </mxCell>
        <mxCell id="JkpCKegnLrsDxvGGHOVk-140" value="" style="rounded=0;whiteSpace=wrap;html=1;" parent="JkpCKegnLrsDxvGGHOVk-103" vertex="1">
          <mxGeometry y="210" width="90" height="20" as="geometry" />
        </mxCell>
        <mxCell id="JkpCKegnLrsDxvGGHOVk-141" value="" style="rounded=0;whiteSpace=wrap;html=1;" parent="JkpCKegnLrsDxvGGHOVk-103" vertex="1">
          <mxGeometry y="245" width="90" height="20" as="geometry" />
        </mxCell>
        <mxCell id="JkpCKegnLrsDxvGGHOVk-142" value="" style="rounded=0;whiteSpace=wrap;html=1;" parent="JkpCKegnLrsDxvGGHOVk-103" vertex="1">
          <mxGeometry y="275" width="90" height="20" as="geometry" />
        </mxCell>
        <mxCell id="JkpCKegnLrsDxvGGHOVk-143" value="" style="rounded=0;whiteSpace=wrap;html=1;" parent="JkpCKegnLrsDxvGGHOVk-103" vertex="1">
          <mxGeometry y="310" width="90" height="20" as="geometry" />
        </mxCell>
        <mxCell id="JkpCKegnLrsDxvGGHOVk-144" value="" style="rounded=0;whiteSpace=wrap;html=1;" parent="JkpCKegnLrsDxvGGHOVk-103" vertex="1">
          <mxGeometry y="340" width="90" height="20" as="geometry" />
        </mxCell>
        <mxCell id="JkpCKegnLrsDxvGGHOVk-149" value="VIDEO WILL BE PLAYING HERE" style="rounded=0;whiteSpace=wrap;html=1;" parent="JkpCKegnLrsDxvGGHOVk-103" vertex="1">
          <mxGeometry x="100" y="90" width="400" height="220" as="geometry" />
        </mxCell>
        <mxCell id="JkpCKegnLrsDxvGGHOVk-150" value="COMMENT SECTION" style="rounded=0;whiteSpace=wrap;html=1;" parent="JkpCKegnLrsDxvGGHOVk-103" vertex="1">
          <mxGeometry x="120" y="330" width="570" height="110" as="geometry" />
        </mxCell>
        <mxCell id="JkpCKegnLrsDxvGGHOVk-151" value="CHAT SECTION" style="whiteSpace=wrap;html=1;aspect=fixed;" parent="JkpCKegnLrsDxvGGHOVk-103" vertex="1">
          <mxGeometry x="515" y="90" width="215" height="215" as="geometry" />
        </mxCell>
      </root>
    </mxGraphModel>
  </diagram>
</mxfile>
